<?xml version="1.0" standalone="no"?>
<!DOCTYPE svg PUBLIC "-//W3C//DTD SVG 20010904//EN"
 "http://www.w3.org/TR/2001/REC-SVG-20010904/DTD/svg10.dtd">
<svg version="1.0" xmlns="http://www.w3.org/2000/svg"
 width="192.000000pt" height="192.000000pt" viewBox="0 0 192.000000 192.000000"
 preserveAspectRatio="xMidYMid meet">

<g transform="translate(0.000000,192.000000) scale(0.100000,-0.100000)"
fill="#000000" stroke="none">
<path d="M478 1104 c-5 -4 -8 -50 -7 -103 1 -53 4 -86 7 -74 4 13 15 32 25 43
9 11 17 36 17 55 0 25 6 37 22 46 19 10 25 8 45 -17 27 -34 29 -61 7 -92 -8
-12 -11 -22 -5 -22 17 0 31 36 31 78 0 57 -25 84 -86 89 -27 3 -52 1 -56 -3z
m35 -36 c-10 -12 -20 -15 -26 -9 -13 13 -2 27 22 27 19 0 19 -1 4 -18z m-3
-40 c0 -7 -7 -21 -15 -32 -13 -17 -14 -16 -11 10 4 35 4 34 16 34 6 0 10 -6
10 -12z"/>
<path d="M670 1101 c0 -7 4 -10 9 -7 5 3 14 -1 21 -10 11 -12 15 -12 21 -2 7
10 11 10 21 0 9 -9 9 -12 -2 -12 -11 0 -11 -3 -2 -12 17 -17 15 -63 -4 -79
-14 -11 -18 -10 -30 6 -8 10 -14 14 -14 8 0 -25 13 -43 31 -43 10 0 19 -5 19
-11 0 -7 -7 -8 -17 -4 -35 13 -38 9 -39 -40 -1 -70 -3 -73 -19 -45 l-14 25 -1
-32 c0 -29 3 -33 25 -33 24 0 25 3 25 60 0 33 4 60 9 60 5 0 18 -26 28 -57 14
-46 23 -59 41 -61 12 -2 22 -2 22 0 0 2 -8 30 -19 64 -18 59 -18 61 1 85 23
28 20 101 -5 126 -19 19 -107 31 -107 14z m108 -78 c-7 -9 -7 -13 1 -13 9 0 9
-5 1 -20 -6 -11 -16 -20 -23 -20 -9 0 -9 2 0 8 7 5 9 20 4 47 -10 55 -1 79 15
40 8 -21 9 -34 2 -42z m-18 -119 c0 -8 -5 -12 -10 -9 -6 4 -8 11 -5 16 9 14
15 11 15 -7z m20 -58 c0 -3 -4 -8 -10 -11 -5 -3 -10 -1 -10 4 0 6 5 11 10 11
6 0 10 -2 10 -4z"/>
<path d="M876 1102 c-3 -5 -15 -62 -26 -128 -11 -65 -23 -129 -26 -142 -4 -20
-1 -23 18 -20 17 2 24 11 26 31 2 15 -1 27 -7 27 -12 0 -15 39 -5 64 3 9 12
16 20 16 8 0 14 10 14 24 0 17 7 26 25 30 26 7 31 27 19 74 -8 27 -23 29 -21
3 0 -11 5 -17 9 -15 4 3 8 -6 8 -20 0 -14 -4 -26 -10 -26 -5 0 -7 6 -4 14 4
11 0 13 -17 9 -21 -6 -22 -4 -16 30 6 36 3 45 -7 29z m-16 -252 c0 -5 -2 -10
-4 -10 -3 0 -8 5 -11 10 -3 6 -1 10 4 10 6 0 11 -4 11 -10z"/>
<path d="M1085 1100 c-6 -11 -19 -76 -16 -87 3 -19 -27 -4 -32 15 -4 15 -5 15
-6 0 0 -10 8 -27 18 -37 17 -17 18 -22 5 -38 -12 -16 -15 -16 -24 -3 -8 11 -9
8 -6 -15 2 -16 5 -51 5 -77 1 -41 4 -48 21 -48 18 0 20 7 20 56 0 35 11 87 30
144 17 49 30 90 30 92 0 6 -41 4 -45 -2z m-28 -190 c1 -11 -2 -20 -8 -20 -5 0
-9 9 -9 20 0 11 4 20 8 20 4 0 8 -9 9 -20z"/>
<path d="M1176 1102 c-3 -5 -15 -62 -26 -128 -11 -65 -23 -129 -26 -142 -4
-20 -1 -23 18 -20 17 2 24 11 26 31 2 15 -1 27 -7 27 -6 0 -11 14 -11 30 0 17
5 30 11 30 5 0 7 5 4 10 -3 6 1 10 9 10 10 0 16 9 16 24 0 17 7 26 25 30 26 7
31 27 19 74 -8 27 -20 29 -20 3 0 -11 4 -17 8 -15 4 3 8 -6 8 -20 0 -14 -4
-26 -10 -26 -5 0 -7 6 -4 14 4 11 0 13 -17 9 -21 -6 -22 -4 -16 30 6 36 3 45
-7 29z m-16 -252 c0 -5 -2 -10 -4 -10 -3 0 -8 5 -11 10 -3 6 -1 10 4 10 6 0
11 -4 11 -10z"/>
<path d="M1334 1095 c-10 -8 -14 -15 -8 -15 5 0 19 7 30 15 10 8 14 15 8 15
-5 0 -19 -7 -30 -15z"/>
<path d="M1398 1100 c12 -5 27 -20 32 -32 5 -15 9 -17 9 -7 1 19 -30 49 -50
48 -8 0 -4 -4 9 -9z"/>
<path d="M1350 1070 c-8 -5 -10 -10 -5 -10 6 0 17 5 25 10 8 5 11 10 5 10 -5
0 -17 -5 -25 -10z"/>
<path d="M558 1058 c7 -7 12 -26 12 -43 0 -17 -5 -36 -12 -43 -8 -8 -9 -12 -1
-12 19 0 36 66 23 90 -6 11 -16 20 -22 20 -9 0 -9 -3 0 -12z"/>
<path d="M677 1059 c7 -7 15 -10 18 -7 3 3 -2 9 -12 12 -14 6 -15 5 -6 -5z"/>
<path d="M1401 1037 c-1 -24 3 -28 21 -25 28 4 36 28 10 28 -11 0 -23 6 -25
13 -3 6 -6 -1 -6 -16z"/>
<path d="M685 1030 c3 -5 8 -10 11 -10 2 0 4 5 4 10 0 6 -5 10 -11 10 -5 0 -7
-4 -4 -10z"/>
<path d="M1368 983 c7 -3 16 -2 19 1 4 3 -2 6 -13 5 -11 0 -14 -3 -6 -6z"/>
<path d="M1413 946 c3 -8 1 -16 -6 -19 -6 -2 -11 -19 -11 -37 -1 -47 -33 -55
-42 -11 -5 23 -12 31 -29 31 -19 0 -21 -4 -17 -32 6 -40 21 -61 39 -54 8 3 11
1 8 -4 -12 -19 55 -10 75 10 24 24 26 60 5 100 -16 31 -32 42 -22 16z m12 -35
c-3 -6 -11 -8 -17 -5 -6 4 -5 9 3 15 16 10 23 4 14 -10z m-75 -55 c0 -3 -7 -6
-15 -6 -9 0 -15 9 -15 21 0 18 2 19 15 5 8 -8 15 -17 15 -20z m80 0 c0 -3 -4
-8 -10 -11 -5 -3 -10 -1 -10 4 0 6 5 11 10 11 6 0 10 -2 10 -4z"/>
<path d="M653 913 c1 -21 5 -29 11 -23 6 6 5 18 -2 32 -10 22 -11 21 -9 -9z"/>
<path d="M885 880 c-3 -5 1 -10 10 -10 9 0 13 5 10 10 -3 6 -8 10 -10 10 -2 0
-7 -4 -10 -10z"/>
<path d="M1190 880 c0 -5 5 -10 11 -10 5 0 7 5 4 10 -3 6 -8 10 -11 10 -2 0
-4 -4 -4 -10z"/>
<path d="M932 840 c4 -30 48 -43 48 -15 0 11 -5 15 -15 11 -8 -3 -19 3 -25 12
-9 14 -10 13 -8 -8z"/>
<path d="M1232 840 c4 -30 48 -43 48 -15 0 11 -5 15 -15 11 -8 -3 -19 3 -25
12 -9 14 -10 13 -8 -8z"/>
<path d="M470 820 c0 -5 5 -10 11 -10 5 0 7 5 4 10 -3 6 -8 10 -11 10 -2 0 -4
-4 -4 -10z"/>
</g>
</svg>
